<svg version="1.1" id="Слой_1" xmlns="http://www.w3.org/2000/svg" xmlns:xlink="http://www.w3.org/1999/xlink" x="0px" y="0px"
	 viewBox="0 0 197.5 196.1" style="enable-background:new 0 0 197.5 196.1;" xml:space="preserve">
<style type="text/css">
	.st0{fill:#290338;}
	.st1{fill:none;stroke:#290338;stroke-width:2;stroke-miterlimit:10;}
</style>
<g>
	<path class="st0" d="M41.2,67.1c0,1.9-1.1,3.7-3.4,5.6c-2.3,1.9-4.9,3.3-8,4.1c1.9,0.4,3.4,1.3,4.4,2.6c1,1.3,1.5,2.9,1.5,4.7
		c0,2.6-1.5,5.3-4.4,8.1c-3,2.8-6,4.2-9,4.2c-1,0-1.9-0.1-2.8-0.3c-0.9-0.2-1.7-0.6-2.5-1.1c0,0.7-0.1,1.3-0.4,1.8
		c-0.2,0.5-0.6,0.7-1.2,0.5c-0.8-0.3-1.2-0.9-1.2-2c0-0.9,0.3-2.1,0.9-3.7c0.2-0.5,0.5-1.4,1.1-2.6c1.3-3.1,3.5-7.4,6.7-12.9
		c3-5.2,5.1-8.5,6.2-9.8c-0.5,0.1-1.7,0.5-3.6,1.3c-0.9,0.4-1.5,0.6-1.8,0.6c-0.5-0.1-0.8-0.4-0.8-1s1.6-1.5,4.8-3
		c3.2-1.4,5.6-2.1,7.2-2.1c1.8,0,3.3,0.5,4.5,1.4C40.6,64.4,41.2,65.6,41.2,67.1z M32.9,82.8c0-1.3-0.6-2.4-1.9-3.3
		c-1.2-0.9-2.4-1.3-3.6-1.3c-0.2,0-0.6,0-1,0c-0.4,0-0.8,0-0.9,0c-0.5,0-0.8-0.1-1-0.2c-1,2-2,3.9-3,5.8c-1.3,2.6-2.6,5.6-3.8,8.9
		c0,0.3,0.4,0.6,1.2,0.9c0.8,0.3,1.8,0.4,2.8,0.4c2.8,0,5.4-1.3,7.8-3.9C31.8,87.7,32.9,85.2,32.9,82.8z M38.5,66.2
		c-0.2-0.6-0.6-1-1.1-1.2c-0.5-0.3-1.2-0.4-2-0.4c-1.3,0-2.5,0.3-3.7,0.9c0.2,0.1,0.3,0.3,0.3,0.6c0,0.4-0.3,1-1,2
		c-2.3,3.3-3.9,5.6-4.7,6.9c2,0,4.5-0.9,7.4-2.6c3.2-1.9,4.8-3.7,4.8-5.4C38.6,66.8,38.6,66.6,38.5,66.2z"/>
	<path class="st0" d="M56.1,86.5c0,0.8-1,2.2-3.1,4.2c-2.2,2.1-4.3,3.6-6.2,4.3c-1.7,4.9-3.7,8.6-5.9,11.2c-1.8,2.1-3.5,3.2-5,3.2
		c-1.1,0-1.9-0.4-2.5-1.2c-0.6-0.8-0.9-1.8-0.9-3c0-1.9,1.2-3.9,3.7-6.1c2.3-2,5.1-3.6,8.4-4.8c0.5-1,1.1-2,1.7-3
		c0.8-1.4,1.3-2.7,1.7-3.8c-1.2,1.8-2.6,3.3-4.2,4.5c-1.6,1.2-2.8,1.9-3.7,1.9c-0.5,0-0.9-0.2-1.1-0.7s-0.4-1-0.4-1.6
		c0-1.6,1.2-3.9,3.5-6.8c2.2-2.8,3.6-4.2,4.3-4.2c0.5,0,0.8,0.4,0.8,1.1c0,0.3-1,1.6-2.9,3.9c-1.9,2.3-2.9,3.8-2.9,4.7
		c0,0.4,0.1,0.5,0.4,0.5c0.6,0,1.8-0.9,3.5-2.8c1.5-1.7,3.1-3.4,4.6-5.2c1.7-1.9,2.8-2.8,3.2-2.8c0.8,0,1.2,0.4,1.2,1.2
		c0,0.3-0.5,1.2-1.4,2.9c-2.4,4.2-3.8,6.8-4.2,7.9c1.3-0.9,2.4-1.8,3.2-2.6c0.8-0.8,1.5-1.7,2.1-2.7c0.4-0.8,0.8-1.2,1.3-1.2
		c0.3,0,0.4,0.1,0.6,0.3C56,85.9,56.1,86.1,56.1,86.5z M43.4,96.9c-2.4,1.2-4.4,2.7-6.1,4.5c-1.4,1.5-2.2,2.7-2.2,3.4
		c0,1.3,0.5,1.9,1.4,1.9c0.6,0,1.2-0.4,2-1.1c1-1,1.9-2.5,2.9-4.5C42.4,99,43,97.6,43.4,96.9z"/>
	<path class="st0" d="M74.2,63.8c0,0.4-0.1,0.8-0.4,1.3s-0.6,1-0.9,1.5c-2.4,3.3-4.9,7-7.3,11.1c-3,4.9-5.1,8.8-6.2,11.9
		c-0.4,1-0.7,2.1-0.9,3.5c-0.2,1.4-0.8,2.1-1.7,2.1c-0.9,0-1.3-0.5-1.3-1.4l0.2-1.2c0-1.5,0.8-3.8,2.3-7c1.2-2.4,2.8-5.4,5.1-9.1
		c1.4-2.3,3.1-5,5.1-8.1c0.8-1.5,1.7-2.8,2.7-3.9c0.9-1.2,1.7-1.7,2.2-1.7C73.7,62.8,74.2,63.2,74.2,63.8z"/>
	<path class="st0" d="M80.9,80.5c0,0.4-0.3,1-0.9,1.9c-1.9,2.7-2.9,4.1-3,4.3c-0.5,1-0.9,2-1.3,3c-0.4,1.3-0.7,2.4-0.7,3.2
		c0,0.6,0.1,1.1,0.3,1.5c0.4,0.9,0.6,1.4,0.6,1.7c0,0.6-0.3,1-0.9,1s-1.1-0.4-1.7-1.2s-0.8-1.7-0.8-2.7c0-1.2,0.3-2.6,0.8-4.2
		c0.4-1.2,0.8-2.4,1.3-3.4c-1.5,1-2.8,2.4-3.9,4.2c-2,3-3.3,4.5-4,4.5c-0.5,0-0.8-0.3-0.7-0.9c0-0.7,0.5-2.1,1.6-4.1
		c0.5-1,1.1-2.1,1.8-3.4c2.2-4,3.6-6,4.2-6c0.7,0,1.1,0.3,1.1,0.9c0,0.5-0.3,1.2-0.9,2.3c-0.4,0.7-0.9,1.5-1.3,2.2
		c0.2-0.2,1.2-1.1,2.8-2.7c1.8-1.8,3.3-2.6,4.4-2.6C80.4,79.8,80.9,80,80.9,80.5z"/>
	<path class="st0" d="M94.2,80.3c0,1.2-0.5,2.3-1.6,3.2c-1.2,1.1-2.7,1.6-4.6,1.6c-0.4,0-0.8-0.1-1-0.3c-0.3-0.2-0.4-0.4-0.4-0.6
		c0-0.5,0.6-0.8,1.8-1c0.9-0.1,1.7-0.4,2.2-0.9c0.5-0.5,0.8-1,0.8-1.5c0-0.7-0.4-1.1-1.3-1.1c-1.2,0-2.3,0.4-3.3,1.3
		c-1,0.9-1.5,1.9-1.5,3c0,0.6,0.4,1.6,1.1,3.2s1.1,3,1.1,4.3c0,1.1-0.3,2.1-1,2.8c-0.7,0.7-1.8,1-3.3,1c-1.4,0-2.5-0.4-3.2-1.3
		c-0.7-0.9-1.1-2-1.1-3.3c0-1.1,0.2-2,0.7-2.9c0.5-0.9,1.1-1.3,1.7-1.3c0.4,0,0.5,0.2,0.5,0.5c0,0.3-0.1,0.5-0.2,0.8
		c-0.4,0.7-0.6,1.3-0.6,1.9c0,0.8,0.2,1.6,0.7,2.3c0.4,0.7,0.9,1.1,1.5,1.1c1.4,0,2.2-0.6,2.2-1.8c0-0.6-0.2-1.3-0.5-2
		c-0.3-0.7-0.8-1.5-1.3-2.3c-0.5-0.9-0.7-1.8-0.7-2.7c0-1.8,0.8-3.4,2.5-4.7c1.7-1.3,3.5-2,5.4-2c1.2,0,2,0.3,2.6,0.8
		C93.9,78.9,94.2,79.5,94.2,80.3z"/>
	<path class="st0" d="M106.1,82c0,1.9-1.1,4.3-3.2,7.3c-2.4,3.3-4.7,5-6.9,5c-0.8,0-1.5-0.3-2-0.9c-1.7,3.5-3.2,7-4.5,10.4
		c-1.3,3.4-2.3,5.1-3.1,5.1c-0.5,0-0.8-0.3-0.8-1c0-1.2,0.7-3.3,2-6.4c0.8-2,2.1-4.7,3.9-8.3c0.8-1.6,1.6-3.2,2.4-4.8
		c1.8-3.5,3.6-7,5.4-10.5c0.6-1.1,1.2-1.6,1.8-1.6c0.7,0,1.1,0.3,1.1,0.8c0,0.4-0.2,1-0.6,1.7c-0.2,0.4-0.6,1.1-1.2,2
		c1.3-1,2.5-1.5,3.6-1.5C105.4,79.4,106.1,80.3,106.1,82z M103.5,82.8c0-0.7-0.2-1.1-0.7-1.1c-1,0-2.2,0.8-3.5,2.5
		c-1.4,1.7-2.9,4.1-4.5,7.3c0.4,0.4,0.8,0.5,1.4,0.5c1.4,0,3-1.2,4.7-3.6C102.6,86.2,103.5,84.2,103.5,82.8z"/>
	<path class="st0" d="M113.6,79.9c0,0.5-0.2,1-0.6,1.5c-0.9,1-2,3-3.4,5.9c-1.4,2.9-2.2,4.9-2.4,6c-0.2,1.1-0.6,1.6-1.3,1.5
		c-0.3,0-0.5-0.2-0.7-0.5c-0.2-0.4-0.3-0.7-0.3-1.2c0-1.6,0.7-3.8,2.2-6.6c1.2-2.4,2.7-4.6,4.2-6.6c0.2-0.2,0.4-0.4,0.6-0.6
		c0.2-0.2,0.5-0.3,0.8-0.3C113.4,79,113.6,79.3,113.6,79.9z M118.6,70.9c0,0.8-0.4,1.6-1.2,2.4c-0.8,0.8-1.5,1.2-2,1.2
		c-0.7,0-1-0.4-1-1.2c0-0.7,0.4-1.5,1.2-2.4c0.8-0.8,1.4-1.2,2-1.2C118.2,69.7,118.6,70.1,118.6,70.9z"/>
	<path class="st0" d="M128.5,83.5c0,0.7-0.7,1.5-2.2,2.4s-2.8,1.4-3.9,1.4c-0.7,0-1.3-0.2-1.7-0.5c-0.4-0.3-0.6-0.9-0.6-1.7
		c0-0.3,0-0.6,0-0.8c-1.4,1.4-2.7,3-4,4.8c-1.4,2-2.2,3.4-2.4,4.3c-0.2,0.6-0.5,1.1-0.9,1.5c-0.4,0.4-0.8,0.6-1.3,0.6
		c-0.7,0-1-0.3-1-1c0-1.3,1.2-4.1,3.6-8.5c2.4-4.4,4.1-6.6,5.3-6.6c0.4,0,0.7,0.1,0.7,0.4c0,0.3-0.6,1.3-1.9,3.2
		c-0.7,1-1.2,1.8-1.4,2.4c1.5-1.3,3-2.7,4.5-4c1.9-1.6,3.2-2.4,3.9-2.4c0.6,0,1,0.2,1,0.6c0,0.4-0.2,0.8-0.7,1.2
		c-0.9,0.8-1.6,1.5-2,2s-0.6,1-0.6,1.2c0,0.3,0.3,0.5,0.8,0.5c0.5,0,1.1-0.1,1.8-0.4c0.6-0.3,1.1-0.6,1.6-1.1
		c0.4-0.3,0.7-0.5,0.9-0.5C128.3,82.7,128.5,82.9,128.5,83.5z"/>
	<path class="st0" d="M140.5,80.3c0,0.5-0.1,1-0.3,1.4c0.2,0.1,0.3,0.4,0.3,0.7c0,0.6-0.5,2-1.5,4.2c-1,2.1-1.5,3.6-1.5,4.3
		c0,1.1,0.4,1.8,1.2,2.2c0.8,0.4,1.2,0.9,1.2,1.5c0,0.3-0.1,0.5-0.4,0.7c-0.3,0.2-0.6,0.2-1,0.2c-0.8,0-1.4-0.3-2-0.8
		c-0.7-0.7-1.1-1.6-1.1-2.7c0-0.2,0-0.5,0.1-0.8c0.1-0.4,0.1-0.6,0.2-0.8c-1.6,2.7-3.2,4-4.9,4c-1.5,0-2.3-1-2.5-3.1
		c0-2.5,1-5.2,3.1-8.2c2.2-3.2,4.5-4.8,6.7-4.8c0.8,0,1.4,0.2,1.8,0.5C140.3,79.2,140.5,79.7,140.5,80.3z M138.7,82.1
		c-0.2-0.8-0.7-1.2-1.3-1.2c-1.1,0-2.5,1.2-4.1,3.6c-1.6,2.4-2.4,4.4-2.4,5.8c0,0.6,0.2,1.1,0.6,1.2c0.7,0.2,1.6-0.6,2.8-2.4
		C135.8,86.8,137.2,84.5,138.7,82.1z"/>
	<path class="st0" d="M157.6,75.7c0.1,0.9-0.5,1.4-2,1.6c-2.6,0.4-4.3,0.7-5.2,1.1c-1.7,3.2-3.1,5.9-4,8.3c-0.8,1.9-1.2,3.3-1.2,4.2
		c0,0.7,0.3,1.1,0.8,1.1c0.6,0,1.5-0.5,2.5-1.6c1-1.1,1.9-2.3,2.6-3.7c0.3-0.6,0.6-0.9,1-0.9c0.5-0.1,0.8,0.2,0.8,0.9
		c0,1.3-0.9,3-2.7,4.9c-1.8,1.9-3.4,2.9-4.9,2.9c-0.8,0-1.5-0.3-2.1-0.9c-0.6-0.6-0.9-1.4-0.9-2.5c0-1.5,0.6-3.6,1.7-6.1
		c0.8-1.9,1.8-3.7,2.9-5.4c-0.7,0.3-1.2,0.4-1.5,0.4c-0.7,0-1.1-0.4-1.1-1.1c0-0.6,0.5-1,1.4-1.2s1.8-0.4,2.8-0.7
		c1.6-2.6,2.8-4.3,3.6-5.2c0.8-0.9,1.5-1.4,2.2-1.4c0.5-0.1,0.7,0.2,0.7,0.9c0,0.5-0.3,1.2-1,2.2c-1,1.4-1.6,2.2-1.7,2.5
		c0.8-0.2,1.5-0.4,2.1-0.5c0.6-0.1,1.2-0.2,1.8-0.2C157.1,75,157.6,75.3,157.6,75.7z"/>
	<path class="st0" d="M161.7,79.9c0,0.5-0.2,1-0.6,1.5c-0.9,1-2,3-3.4,5.9c-1.4,2.9-2.2,4.9-2.4,6c-0.2,1.1-0.6,1.6-1.3,1.5
		c-0.3,0-0.5-0.2-0.7-0.5c-0.2-0.4-0.3-0.7-0.3-1.2c0-1.6,0.7-3.8,2.2-6.6c1.2-2.4,2.7-4.6,4.2-6.6c0.2-0.2,0.4-0.4,0.6-0.6
		s0.5-0.3,0.8-0.3C161.4,79,161.7,79.3,161.7,79.9z M166.6,70.9c0,0.8-0.4,1.6-1.2,2.4c-0.8,0.8-1.5,1.2-2,1.2c-0.7,0-1-0.4-1-1.2
		c0-0.7,0.4-1.5,1.2-2.4c0.8-0.8,1.4-1.2,2-1.2C166.3,69.7,166.6,70.1,166.6,70.9z"/>
	<path class="st0" d="M172.7,80.5c0,2.5-1.1,5.4-3.2,8.8c-2.2,3.6-4.3,5.4-6.2,5.4c-0.9,0-1.5-0.3-1.9-0.8s-0.6-1.4-0.6-2.4
		c0-2.7,1-5.5,3.1-8.5c2.2-3.3,4.6-4.9,7.1-4.9c0.6,0,1.1,0.2,1.3,0.7C172.5,79.1,172.7,79.7,172.7,80.5z M170.3,81.6
		c0-0.6-0.3-1-0.9-1c-0.9,0-2.1,1.2-3.8,3.5s-2.5,4.3-2.5,5.8c0,1.2,0.4,1.8,1.2,1.8c0.6,0,1.3-0.4,1.9-1.1s1.2-1.8,1.7-3.3
		c-0.5,0-0.7-0.1-0.7-0.4c0-0.3,0.3-0.9,0.9-1.6c1-1.2,1.5-1.9,1.6-2.1C170.1,82.7,170.3,82.1,170.3,81.6z"/>
	<path class="st0" d="M186.5,80.5c0,0.4-0.3,1-0.9,1.9c-1.9,2.7-2.9,4.1-3,4.3c-0.5,1-0.9,2-1.3,3c-0.4,1.3-0.7,2.4-0.7,3.2
		c0,0.6,0.1,1.1,0.3,1.5c0.4,0.9,0.6,1.4,0.6,1.7c0,0.6-0.3,1-0.9,1s-1.1-0.4-1.7-1.2c-0.5-0.8-0.8-1.7-0.8-2.7
		c0-1.2,0.3-2.6,0.8-4.2c0.4-1.2,0.8-2.4,1.3-3.4c-1.5,1-2.8,2.4-3.9,4.2c-2,3-3.3,4.5-4,4.5c-0.5,0-0.8-0.3-0.7-0.9
		c0-0.7,0.5-2.1,1.6-4.1c0.5-1,1.1-2.1,1.8-3.4c2.2-4,3.6-6,4.2-6c0.7,0,1.1,0.3,1.1,0.9c0,0.5-0.3,1.2-0.9,2.3
		c-0.4,0.7-0.9,1.5-1.3,2.2c0.2-0.2,1.2-1.1,2.8-2.7c1.8-1.8,3.3-2.6,4.4-2.6C186,79.8,186.4,80,186.5,80.5z"/>
	<path class="st0" d="M53.1,131.3v-15h2v13.3h7.4v1.8H53.1z"/>
	<path class="st0" d="M65.2,131.3v-15h2v15H65.2z"/>
	<path class="st0" d="M70.6,131.3v-15h2l7.9,11.8v-11.8h1.9v15h-2l-7.9-11.8v11.8H70.6z"/>
	<path class="st0" d="M92.9,125.4v-1.8l6.4,0v5.6c-1,0.8-2,1.4-3,1.8s-2.1,0.6-3.2,0.6c-1.5,0-2.8-0.3-4-0.9
		c-1.2-0.6-2.1-1.5-2.7-2.7s-0.9-2.5-0.9-4c0-1.5,0.3-2.8,0.9-4.1c0.6-1.3,1.5-2.2,2.6-2.8s2.5-0.9,4-0.9c1.1,0,2.1,0.2,2.9,0.5
		c0.9,0.4,1.6,0.8,2.1,1.5s0.9,1.4,1.1,2.5l-1.8,0.5c-0.2-0.8-0.5-1.4-0.8-1.8s-0.8-0.8-1.4-1.1c-0.6-0.3-1.3-0.4-2.1-0.4
		c-0.9,0-1.7,0.1-2.4,0.4c-0.7,0.3-1.2,0.6-1.6,1.1c-0.4,0.5-0.7,0.9-0.9,1.5c-0.4,0.9-0.6,1.9-0.6,3c0,1.3,0.2,2.5,0.7,3.4
		c0.5,0.9,1.1,1.6,2,2s1.8,0.7,2.8,0.7c0.9,0,1.7-0.2,2.5-0.5c0.8-0.3,1.4-0.7,1.9-1.1v-2.8L92.9,125.4L92.9,125.4z"/>
	<path class="st0" d="M102.2,131.3v-15h10.9v1.8h-8.9v4.6h8.3v1.8h-8.3v5.1h9.2v1.8H102.2z"/>
	<path class="st0" d="M116.2,131.3v-15h6.7c1.3,0,2.4,0.1,3.1,0.4c0.7,0.3,1.3,0.7,1.7,1.4s0.6,1.4,0.6,2.3c0,1.1-0.3,2-1,2.7
		s-1.8,1.2-3.2,1.4c0.5,0.3,0.9,0.5,1.2,0.7c0.6,0.5,1.1,1.2,1.7,2l2.6,4.1h-2.5l-2-3.1c-0.6-0.9-1.1-1.6-1.4-2.1s-0.7-0.8-1-1
		c-0.3-0.2-0.6-0.3-0.9-0.4c-0.2,0-0.6-0.1-1.1-0.1h-2.3v6.7L116.2,131.3L116.2,131.3z M118.2,122.9h4.3c0.9,0,1.6-0.1,2.1-0.3
		c0.5-0.2,0.9-0.5,1.2-0.9c0.3-0.4,0.4-0.9,0.4-1.3c0-0.7-0.3-1.3-0.8-1.8c-0.5-0.5-1.3-0.7-2.4-0.7h-4.8V122.9z"/>
	<path class="st0" d="M131.7,131.3v-15h2v15H131.7z"/>
	<path class="st0" d="M137.2,131.3v-15h10.9v1.8h-8.9v4.6h8.3v1.8h-8.3v5.1h9.2v1.8H137.2z"/>
</g>
<circle class="st1" cx="99" cy="97.1" r="93.4"/>
</svg>
