<svg xmlns="http://www.w3.org/2000/svg" viewBox="0 0 651.969 320.315" x="0px" y="0px" fill="#290338" width="40" height="20">
	<path d="M639.382,136.995c0,5.69,0.39,11.407-0.117,17.046c-0.455,5.132-0.182,10.342-1.507,15.383
			c-0.13,0.494-0.195,1.013-0.195,1.52c0,3.573-1.156,6.938-1.897,10.381c-1.39,6.574-4.014,12.706-6.483,18.864
			c-1,2.481-2.754,4.651-4.158,6.977c-4.144,6.912-9.653,12.641-15.941,17.552c-5.808,4.521-12.057,8.406-18.956,11.134
			c-2.365,0.922-4.586,2.183-6.951,3.066c-2.819,1.039-5.729,1.845-8.614,2.702c-3.56,1.065-7.107,2.144-10.692,3.105
			c-3.001,0.819-5.963,1.806-9.12,2.014c-1.832,0.117-3.638,0.65-5.457,0.948c-3.573,0.572-7.159,1.156-10.757,1.663
			c-1.832,0.26-3.703,0.351-5.548,0.52c-8.081,0.793-16.162,1.663-24.243,2.339c-4.053,0.351-8.133,0.325-12.199,0.533
			c-1.845,0.091-3.69,0.338-5.535,0.481c-2.352,0.195-4.716,0.338-7.068,0.533c-3.378,0.286-6.743,0.623-10.121,0.87
			c-1.767,0.13-3.56,0.052-5.327,0.195c-2.949,0.221-5.872,0.585-8.822,0.805c-1.858,0.143-3.716,0.156-5.587,0.208
			c-3.898,0.104-7.847-0.195-11.667,0.39c-5.665,0.87-11.329,0.39-16.968,0.728c-5.405,0.325-10.796,0.689-16.201,0.961
			c-3.222,0.169-6.431,0.26-9.653,0.299c-5.509,0.091-11.043-0.169-16.539,0.208c-12.615,0.87-25.244,0.494-37.872,0.611
			c-7.626,0.078-15.253,0.299-22.879,0.286c-10.42-0.013-20.878,0.286-31.272-0.403c-13.46-0.896-26.946-0.247-40.392-1.065
			c-0.585-0.026-1.182,0.026-1.78-0.013c-4.976-0.273-9.952-0.598-14.928-0.831c-2.884-0.13-5.768-0.117-8.653-0.156
			c-2.962-0.039-5.937,0.026-8.9-0.104c-2.611-0.104-5.21-0.481-7.821-0.585c-5.509-0.208-11.004-0.312-16.513-0.455
			c-1.351-0.039-2.365,0.429-3.287,1.52c-2.728,3.248-5.535,6.405-8.393,9.549c-3.924,4.313-7.951,8.549-11.888,12.862
			c-3.82,4.197-7.535,8.497-11.42,12.615c-3.469,3.703-7.042,7.327-10.744,10.783c-1.377,1.286-3.196,2.17-4.924,2.988
			c-4.807,2.235-8.977-1.741-8.964-5.976c0.039-10.082-0.234-20.164-0.364-30.245c-0.039-2.884-0.052-5.782,0.013-8.653
			c0.065-2.365,0.338-4.729,0.377-7.094c0.039-2.352-0.442-2.715-2.793-2.975c-3.027-0.338-6.041-0.818-9.068-1.169
			c-3.859-0.442-7.73-0.754-11.576-1.286c-3.157-0.442-6.288-1.104-9.432-1.689c-2.053-0.39-4.131-0.779-6.171-1.247
			c-4.352-1-8.744-1.91-13.044-3.144c-11.303-3.248-22.177-7.431-31.675-14.655c-8.042-6.106-14.746-13.356-19.774-22.191
			c-2.209-3.885-4.157-7.886-5.704-12.057c-1.143-3.066-1.884-6.275-2.728-9.445c-0.831-3.092-1.585-6.197-2.378-9.302
			c-0.039-0.169-0.117-0.325-0.13-0.481c-0.364-3.534-0.883-7.055-1.052-10.588c-0.195-3.807-0.143-7.6-0.832-11.368
			c-0.338-1.806-0.143-3.716-0.143-5.587c0.026-10.186-0.091-20.371,0.169-30.544c0.13-4.794,1.013-9.562,1.546-14.343
			c0.039-0.325,0.169-0.663,0.169-1c0.013-1.949,0.221-3.807,0.948-5.703c0.818-2.092,1.091-4.404,1.624-6.613
			c1.416-5.82,3.157-11.602,5.872-16.89c3.547-6.925,7.626-13.642,13.421-18.994c5.054-4.651,10.718-8.549,16.747-11.875
			c5.327-2.949,10.874-5.366,16.669-7.197c2.326-0.728,4.625-1.585,7.003-2.144c2.442-0.585,4.963-0.857,7.444-1.299
			c3.079-0.533,6.145-1.104,9.224-1.624c3.508-0.598,7.016-1.169,10.524-1.741c1.832-0.299,3.664-0.611,5.509-0.832
			c5.288-0.663,10.576-1.26,15.85-1.91c4.872-0.598,9.731-1.234,14.59-1.832c1.091-0.13,2.209-0.091,3.3-0.195
			c2.52-0.26,5.028-0.559,7.548-0.845c0.507-0.052,1.013-0.091,1.52-0.13c7.328-0.585,14.655-1.169,21.996-1.741
			c5.794-0.455,11.615-0.831,17.409-1.325c1.923-0.169,3.82-0.585,5.743-0.87c0.585-0.091,1.169-0.143,1.754-0.169
			c4.664-0.182,9.315-0.325,13.979-0.507c5.496-0.221,11.03-0.182,16.487-0.74c10.991-1.143,22.034-0.351,33.013-1.156
			c8.302-0.611,16.591-0.455,24.893-0.494c20.19-0.104,40.392-0.039,60.582-0.026c5.69,0,11.394-0.273,17.058,0.143
			c8.367,0.623,16.747,0.649,25.127,0.766c5.171,0.078,10.368-0.169,15.5,0.325c7.704,0.728,15.422,0.208,23.087,0.792
			c7.029,0.533,14.031,0.87,21.06,0.922c1.754,0,3.495,0.455,5.262,0.585c5.639,0.455,11.303,0.779,16.942,1.273
			c6.158,0.546,12.29,1.221,18.436,1.845c0.845,0.078,1.689,0.13,2.533,0.195c5.223,0.403,10.446,0.728,15.655,1.26
			c4.196,0.429,8.354,1.169,12.537,1.715c3.599,0.481,7.21,0.87,10.809,1.351c1.507,0.195,3.001,0.546,4.495,0.805
			c4.261,0.728,8.523,1.403,12.758,2.183c2.637,0.481,5.249,1.143,7.873,1.702c2.053,0.442,4.131,0.779,6.171,1.273
			c4.17,1.013,8.367,2.001,12.498,3.196c4.196,1.221,8.393,2.52,12.472,4.079c3.066,1.169,5.937,2.819,8.913,4.209
			c7.522,3.482,13.732,8.692,18.981,14.993c5.366,6.431,10.056,13.356,12.706,21.437c1.39,4.261,2.793,8.523,3.898,12.862
			c0.702,2.754,0.87,5.652,1.286,8.497c0.195,1.325,0.39,2.65,0.598,3.988c0.078,0.494,0.208,0.987,0.234,1.494
			c0.338,4.976,0.806,9.952,0.948,14.941c0.169,5.34,0.039,10.692,0.039,16.032H639.382z M138.968,231.07
			c0,0.805,0.013,1.39,0,1.962c-0.104,6.522-0.208,13.057-0.299,19.579c-0.026,1.611-0.026,3.222-0.026,4.833
			c-0.013,13.317-0.026,26.634-0.026,39.95c0,1.585,0.961,2.157,2.326,1.403c0.792-0.455,1.546-1.065,2.183-1.728
			c3.846-4.053,7.639-8.146,11.459-12.226c1.156-1.234,2.378-2.416,3.508-3.677c3.378-3.794,6.678-7.639,10.082-11.407
			c3.521-3.885,7.172-7.665,10.692-11.563c6.353-7.042,12.68-14.109,18.968-21.216c1.078-1.221,2.222-1.624,3.807-1.377
			c5.275,0.857,10.589,1.117,15.941,1.091c4.573-0.026,9.159,0.182,13.733,0.325c4.989,0.169,9.965,0.403,14.954,0.572
			c3.651,0.13,7.288,0.208,10.926,0.286c13.551,0.286,27.088,0.598,40.639,0.845c5.262,0.091,10.524,0.013,15.785,0.039
			c8.133,0.065,16.292,0.507,24.412,0.13c9.653-0.442,19.293,0.247,28.946-0.676c6.977-0.676,14.07-0.13,21.112-0.208
			c4.573-0.052,9.146-0.221,13.72-0.403c3.547-0.143,7.081-0.468,10.627-0.572c6.522-0.182,13.057-0.247,19.592-0.39
			c2.196-0.039,4.404-0.039,6.6-0.208c3.378-0.247,6.73-0.714,10.095-0.909c6.249-0.364,12.511-0.585,18.761-0.922
			c1.845-0.104,3.677-0.507,5.522-0.611c7.185-0.429,14.369-0.792,21.541-1.195c0.935-0.052,1.858-0.143,2.78-0.247
			c1.858-0.195,3.703-0.416,5.548-0.585c5.223-0.494,10.446-0.974,15.668-1.455c0.078-0.013,0.169-0.013,0.247-0.026
			c4.261-0.65,8.536-1.26,12.797-1.949c5.651-0.922,11.303-1.897,16.955-2.858c0.169-0.026,0.325-0.104,0.494-0.13
			c2.611-0.598,5.223-1.182,7.834-1.767c2.131-0.468,4.339-0.779,6.405-1.468c5.353-1.767,10.602-3.846,15.967-5.561
			c5.054-1.611,9.549-4.287,13.94-7.094c6.405-4.08,11.823-9.263,15.785-15.863c2.533-4.222,4.781-8.523,5.742-13.395
			c0.325-1.637,0.831-3.235,1.247-4.846c0.754-2.858,1.728-5.665,2.209-8.562c0.884-5.327,1.611-10.692,2.144-16.058
			c0.546-5.626,0.987-11.29,1.078-16.942c0.078-5.223-0.364-10.459-0.611-15.694c-0.104-2.364,0-4.794-0.455-7.094
			c-0.974-4.872-2.235-9.692-3.404-14.538c-0.364-1.455-0.935-2.871-1.208-4.352c-0.714-3.742-1.936-7.34-3.69-10.64
			c-4.365-8.276-10.68-14.798-18.812-19.488c-2.248-1.299-4.664-2.299-7.016-3.43c-5.327-2.56-10.822-4.625-16.669-5.665
			c-1.806-0.312-3.586-0.857-5.366-1.312c-2.936-0.754-5.859-1.624-8.822-2.261c-2.897-0.611-5.898-0.767-8.718-1.572
			c-2.092-0.598-4.118-0.883-6.236-0.922c-0.416-0.013-0.831-0.182-1.234-0.247c-1.403-0.26-2.806-0.52-4.209-0.754
			c-1.078-0.182-2.17-0.325-3.248-0.481c-1.26-0.182-2.508-0.403-3.768-0.533c-4.041-0.429-8.081-0.754-12.109-1.26
			c-5.613-0.702-11.199-1.624-16.812-2.261c-4.703-0.533-9.445-0.611-14.135-1.208c-4.872-0.611-9.77-0.091-14.655-0.961
			c-6.236-1.13-12.628-0.039-18.955-1.104c-4.378-0.741-8.965-0.273-13.46-0.351c-0.767-0.013-1.533,0-2.287-0.065
			c-3.183-0.286-6.366-0.844-9.562-0.87c-12.031-0.104-24.048-0.221-36.053-1.091c-4.131-0.299-8.289-0.286-12.446-0.364
			c-4.989-0.078-9.991-0.078-14.993-0.13c-8.211-0.104-16.435-0.338-24.659-0.312c-12.966,0.013-25.945,0.182-38.911,0.312
			c-7.457,0.065-14.915,0.169-22.385,0.26c-6.093,0.065-12.186,0.13-18.293,0.208c-0.416,0-0.845,0.026-1.26,0.065
			c-3.794,0.286-7.574,0.754-11.355,0.857c-7.782,0.208-15.551,0.182-23.321,1.013c-5.613,0.611-11.316,0.208-16.968,0.974
			c-5.444,0.728-10.952,0.195-16.448,0.987c-5.236,0.741-10.627,0.364-15.928,1.156c-4.417,0.663-8.925,0.766-13.395,1.104
			c-2.611,0.195-5.249,0.247-7.847,0.585c-4.43,0.572-8.822,1.546-13.33,1.507c-0.663-0.013-1.338,0.182-2.001,0.26
			c-1.936,0.234-3.859,0.455-5.794,0.663c-4.118,0.455-8.237,0.883-12.342,1.338c-0.507,0.052-1,0.234-1.494,0.312
			c-0.909,0.156-1.819,0.325-2.741,0.429c-1.507,0.182-3.027,0.247-4.534,0.494c-3.404,0.572-6.808,1.169-10.199,1.858
			c-4.612,0.922-9.25,1.819-13.824,2.988c-2.572,0.663-5.054,1.754-7.535,2.78c-7.263,3.014-14.226,6.561-20.423,11.511
			c-7.029,5.6-12.148,12.615-15.837,20.774c-1.949,4.326-3.027,8.887-4.274,13.421c-1.494,5.418-2.43,10.9-2.676,16.513
			c-0.039,1.013-0.091,2.027-0.156,3.04c-0.234,3.872-0.857,7.769-0.637,11.615c0.286,4.716,0.299,9.445,0.624,14.161
			c0.442,6.431,0.845,12.862,1.884,19.202c0.728,4.469,2.196,8.809,3.17,13.252c0.702,3.235,1.962,6.223,3.417,9.172
			c5.833,11.758,14.577,20.722,26.114,26.881c6.717,3.586,13.888,6.093,21.242,8.029c1.793,0.468,3.586,0.909,5.392,1.312
			c2.702,0.598,5.405,1.221,8.12,1.702c3.573,0.637,7.159,1.169,10.744,1.741c4.755,0.741,9.51,1.494,14.278,2.196
			C132.121,230.187,135.395,230.589,138.968,231.07"/>
		<path d="M372.98,115.579c0.844-0.221,1.624-0.221,2.144-0.585c6.587-4.742,14.018-6.145,21.879-5.249
			c4.794,0.546,9.497,1.884,13.603,4.443c3.742,2.326,7.146,5.21,9.783,8.796c2.715,3.664,5.379,7.405,6.886,11.771
			c0.65,1.897,1.013,3.885,1.559,5.82c0.741,2.625,1.13,5.275,1.078,8.003c-0.052,4.144,0.13,8.302-0.182,12.433
			c-0.195,2.546-1.078,5.067-1.715,7.587c-1.429,5.716-4.69,10.446-8.38,14.863c-4.079,4.859-9.029,8.757-15.006,10.965
			c-5.327,1.962-10.926,1.91-16.526,1.481c-4.054-0.299-7.73-1.546-10.991-3.937c-1.026-0.754-1.91-1.676-2.845-2.534
			c-1.104-1-1.832-1.013-2.793,0.078c-0.507,0.559-0.922,1.208-1.351,1.832c-2.105,3.001-4.989,4.456-8.627,4.378
			c-2.092-0.039-4.157,0.182-6.21-0.832c-1.377-0.675-2.469-1.52-3.222-2.715c-1.442-2.299-2.598-4.716-2.676-7.548
			c-0.078-3.04-0.39-6.067-0.39-9.107c-0.039-25.62-0.052-51.228-0.013-76.848c0.013-3.378,0.26-6.756,1.663-9.926
			c0.819-1.871,1.741-3.742,3.599-4.755c3.209-1.767,6.548-2.274,10.212-1.286c5.08,1.364,6.756,5.288,7.665,9.705
			c1.442,6.951,0.857,14.019,0.857,21.034C372.98,114.033,372.98,114.604,372.98,115.579 M406.877,152.684
			c0-1.13,0.117-2.832-0.039-4.508c-0.104-1.169-0.637-2.274-0.87-3.43c-1.117-5.742-4.3-10.004-9.276-12.927
			c-5.015-2.936-10.069-2.858-15.149-0.026c-6.925,3.846-9.393,10.342-10.511,17.578c-0.637,4.132-0.195,8.276,1.026,12.304
			c1.13,3.716,2.936,7.107,5.781,9.692c7.288,6.652,18.618,5.911,24.88-2.819C406.006,163.974,407.15,158.79,406.877,152.684"/>
		<path id="XMLID_10_" d="M261.454,155.052c0.754-2.235,1.26-3.82,1.819-5.392c1.338-3.807,2.676-7.613,4.04-11.394
			c1.338-3.729,2.715-7.432,4.067-11.147c1.455-3.963,2.936-7.925,4.339-11.901c1.013-2.858,1.897-5.756,2.91-8.601
			c0.779-2.222,1.65-4.417,2.481-6.613c1.182-3.066,2.365-6.132,3.573-9.185c0.429-1.091,0.896-2.17,1.416-3.222
			c1.39-2.754,3.716-4.287,6.639-4.976c4.807-1.117,11.953,0.468,14.291,6.405c0.182,0.468,0.416,0.948,0.442,1.442
			c0.299,4.43,0.091,8.718-1.806,12.914c-1.988,4.43-3.482,9.094-5.262,13.616c-0.87,2.209-1.949,4.313-2.819,6.509
			c-1.793,4.534-3.495,9.094-5.262,13.629c-0.987,2.52-2.053,5.002-3.066,7.496c-1.325,3.274-2.637,6.535-3.95,9.822
			c-1.468,3.69-2.936,7.379-4.378,11.082c-1.364,3.508-2.624,7.055-4.066,10.536c-1.871,4.508-3.846,8.978-5.82,13.447
			c-1.897,4.287-5.483,5.872-9.926,6.223c-2.287,0.169-4.404-0.403-6.405-1.195c-2.118-0.845-3.391-2.845-4.443-4.742
			c-1.247-2.274-2.157-4.729-3.157-7.133c-1.065-2.572-2.079-5.158-3.118-7.756c-1.364-3.43-2.715-6.86-4.105-10.29
			c-1.416-3.521-2.871-7.029-4.3-10.549c-0.922-2.248-1.845-4.482-2.741-6.743c-1.403-3.521-2.767-7.068-4.17-10.589
			c-1.325-3.352-2.676-6.691-4.015-10.03c-0.949-2.352-1.91-4.69-2.845-7.042c-1.806-4.521-3.599-9.042-5.392-13.577
			c-0.559-1.403-0.974-2.897-1.715-4.209c-1.975-3.521-1.78-7.418-0.948-10.926c0.896-3.794,3.378-6.977,7.769-7.782
			c0.416-0.078,0.819-0.221,1.221-0.364c4.183-1.559,10.043,0.065,12.213,4.937c1.923,4.313,3.664,8.718,5.392,13.122
			c2.325,5.937,4.586,11.901,6.834,17.864c0.819,2.196,1.468,4.456,2.274,6.652c1.442,3.962,2.949,7.899,4.391,11.862
			c1.312,3.625,2.572,7.275,3.859,10.913c0.507,1.442,0.896,2.923,1.559,4.274C259.674,153.285,260.48,153.922,261.454,155.052"/>
		<path d="M484.535,159.19c-7.795,0-15.603,0-23.412,0c-0.338,0-0.676-0.039-1.013-0.013
			c-1.546,0.104-2.248,0.922-1.663,2.338c0.741,1.78,1.572,3.612,2.78,5.067c2.43,2.936,5.132,5.639,8.965,6.782
			c4.235,1.26,8.445,2.235,12.94,0.948c2.728-0.792,5.587-1.104,8.211-2.378c2.43-1.169,4.924-2.17,7.418-3.196
			c2.17-0.883,4.209-2.105,6.73-2.027c4.599,0.13,8.471,4.053,8.588,8.64c0.169,6.067-3.183,9.991-7.86,12.979
			c-2.988,1.91-6.106,3.794-9.406,4.989c-3.456,1.234-7.172,1.871-10.822,2.339c-3.521,0.442-7.107,0.325-10.653,0.442
			c-5.132,0.156-10.212-0.624-14.85-2.663c-3.742-1.637-7.276-4.002-10.536-6.509c-6.483-5.015-10.563-11.836-13.252-19.462
			c-1.156-3.248-1.26-6.769-1.676-10.199c-0.533-4.573,0.039-9.094,0.533-13.577c0.481-4.17,1.949-8.172,3.911-11.953
			c3.729-7.172,9.081-12.823,15.902-17.098c3.391-2.131,7.159-3.248,11.043-4.131c3.664-0.845,7.341-1.221,11.082-1.104
			c3.924,0.13,7.652,1.065,11.433,2.014c5.171,1.286,9.432,3.988,13.356,7.405c4.209,3.651,7.665,7.873,9.9,12.992
			c2.637,6.028,4.313,12.264,4.092,18.929c-0.065,1.949-0.611,3.69-1.507,5.327c-1.182,2.157-3.339,2.806-5.548,2.975
			c-2.702,0.221-5.431,0.143-8.133,0.143c-5.522,0.013-11.03,0.013-16.552,0.013V159.19z M475.571,145.744v-0.143
			c1.442,0,2.884-0.013,4.326,0c4.066,0.026,8.133,0.052,12.212,0.078c1.897,0.013,2.43-0.663,1.936-2.52
			c-0.143-0.572-0.416-1.117-0.546-1.689c-1.117-4.69-3.898-8.198-7.834-10.822c-2.066-1.377-4.443-1.767-6.847-2.339
			c-3.001-0.728-5.781-0.078-8.432,0.559c-4.3,1.039-7.769,3.781-9.926,7.756c-1.234,2.261-2.079,4.755-2.975,7.185
			c-0.455,1.247,0.312,1.949,1.819,1.936C464.722,145.731,470.153,145.744,475.571,145.744"/>
		<path id="XMLID_7_" d="M103.206,82.244c2.494-0.182,4.469,0.779,6.067,2.338
			c6.405,6.262,11.862,13.239,16.045,21.164c0.702,1.338,1.117,2.832,1.637,4.274c0.403,1.091,0.416,2.222-0.312,3.157
			c-1.299,1.65-2.611,3.326-4.08,4.82c-1.052,1.078-2.378,1.897-3.586,2.819c-3.118,2.378-3.872,4.82-3.04,8.64
			c1.39,6.509,4.911,11.836,9.12,16.747c3.313,3.871,7.016,7.444,11.316,10.173c3.612,2.3,7.483,4.339,11.485,5.847
			c3.326,1.26,6.73,0.766,9.016-2.625c0.805-1.195,1.845-2.222,2.65-3.404c3.118-4.56,8.25-5.717,13.382-2.819
			c7.419,4.17,14.07,9.393,20.579,14.811c2.611,2.157,3.235,4.976,2.482,8.25c-0.883,3.82-3.521,6.509-5.82,9.393
			c-2.183,2.728-4.807,5.015-7.834,6.808c-2.3,1.351-4.781,2.248-7.458,2.014c-1.637-0.143-3.326-0.598-4.846-1.273
			c-9.51-4.17-18.929-8.575-27.621-14.278c-5.08-3.339-9.848-7.172-14.538-11.056c-3.846-3.183-7.548-6.587-10.952-10.225
			c-4.04-4.326-7.73-8.978-11.472-13.577c-4.352-5.327-7.977-11.16-11.238-17.188c-2.326-4.287-4.352-8.731-6.392-13.161
			c-1.26-2.754-2.274-5.613-3.417-8.419c-1.741-4.326-0.728-10.017,2.78-13.109c3.417-3.014,7.081-5.768,10.744-8.497
			C99.464,82.725,101.283,81.919,103.206,82.244"/>
		<path id="XMLID_6_" d="M547.487,118.189c1.065-0.909,1.858-1.533,2.598-2.222c4.3-4.002,9.367-5.704,15.266-5.535
			c5.158,0.156,9.653,4.002,10.9,8.77c0.922,3.56,0.169,7.042-3.066,9.562c-3.378,2.624-7.094,4.521-11.121,5.911
			c-3.56,1.234-7.172,2.404-10.212,4.833c-2.611,2.105-3.924,4.781-3.924,8.081c-0.026,10.264,0.026,20.527-0.039,30.778
			c-0.026,3.729-0.559,7.418-1.988,10.9c-2.196,5.366-7.626,7.146-12.784,6.197c-4.586-0.857-7.12-3.599-8.315-8.107
			c-0.689-2.598-0.883-5.158-0.896-7.769c-0.039-17.799-0.026-35.611-0.052-53.423c0-2.975,0.325-5.885,1.286-8.718
			c1.442-4.275,4.677-6.262,8.965-6.717c4.768-0.507,8.575,1.325,11.524,5.054C546.201,116.5,546.746,117.228,547.487,118.189"/>
		<path id="XMLID_5_" d="M315.262,155.537c0-8.991-0.104-17.981,0.065-26.959c0.052-2.378,0.663-4.872,1.559-7.081
			c1.754-4.365,6.47-6.054,11.498-5.405c4.911,0.637,8.328,4.326,8.731,9.705c0.312,4.378,0.455,8.783,0.481,13.187
			c0.052,13.901,0.078,27.803-0.026,41.704c-0.026,3.092-0.143,6.236-1.533,9.172c-1.819,3.859-4.82,5.691-9.003,5.846
			c-3.872,0.156-7.289-0.845-9.38-4.3c-1.533-2.534-2.378-5.392-2.378-8.406C315.249,173.843,315.262,164.697,315.262,155.537"/>
		<path id="XMLID_4_" d="M339.162,95.02c1.026,6.795-5.716,12.368-12.044,12.278
			c-8.497-0.117-12.914-6.015-12.784-12.576c0.143-7.315,5.236-12.239,12.875-12.472C333.16,82.054,340.28,87.771,339.162,95.02"/>
		<path id="XMLID_3_" d="M145.46,80.999c4.131,0.234,8.159,1.013,12.173,2.04
			c7.964,2.053,14.707,6.119,20.722,11.615c4.287,3.911,7.977,8.263,10.42,13.538c1.585,3.404,2.793,6.99,4.066,10.537
			c2.027,5.652,1.936,11.628,2.443,17.5c0.13,1.481-1.078,2.754-2.598,2.858c-1.52,0.104-2.455-0.688-2.689-2.338
			c-0.143-0.923-0.234-1.858-0.234-2.78c-0.052-3.989-0.883-7.847-1.546-11.758c-1.104-6.626-4.197-12.316-8.029-17.552
			c-4.339-5.924-9.978-10.55-16.669-13.72c-4.742-2.235-9.77-3.703-14.915-4.612c-2.235-0.39-4.56-0.221-6.847-0.338
			c-1.676-0.078-2.391-0.623-2.624-1.858c-0.39-2.053,0.39-3.04,2.507-3.118C142.914,80.96,144.187,80.999,145.46,80.999"/>
		<path id="XMLID_2_" d="M181.34,127.787c0,1.182,0,2.378,0,3.56c0.013,0.961-0.013,1.884-1.182,2.235
			c-1.208,0.364-2.469,0.442-3.261-0.637c-0.559-0.766-1.013-1.845-0.987-2.767c0.104-3.404-0.221-6.743-1.208-10.004
			c-1.117-3.664-3.001-6.899-5.444-9.874c-3.222-3.911-7.457-6.353-11.862-8.484c-1.858-0.91-4.015-1.234-6.08-1.676
			c-1.793-0.39-3.651-0.559-5.47-0.884c-1.585-0.286-2.702-1.507-2.533-2.65c0.195-1.325,1.624-2.546,3.131-2.326
			c3.235,0.481,6.457,1.143,9.679,1.78c2.988,0.572,5.781,1.676,8.406,3.209c5.613,3.274,9.874,7.795,12.953,13.551
			c1.741,3.235,2.715,6.704,3.677,10.16c0.416,1.494,0.078,3.196,0.078,4.807C181.262,127.787,181.301,127.787,181.34,127.787"/>
		<path id="XMLID_1_" d="M168.14,125.823c-0.013,1.208,0.052,2.339-1.273,3.079
			c-1.728,0.948-3.625,0.234-3.664-1.767c-0.039-2.001-0.546-3.846-1.273-5.652c-1.429-3.573-3.56-6.496-7.678-7.301
			c-1.403-0.273-2.767-0.714-4.17-0.896c-1.611-0.208-2.676-1.208-2.637-2.728c0.026-1.208,1.403-2.456,2.78-2.469
			c0.754,0,1.533,0.065,2.274,0.221c5.132,1.104,9.952,2.741,12.797,7.691C167.049,119.054,167.725,122.406,168.14,125.823"/>
</svg>
