<svg xmlns="http://www.w3.org/2000/svg" x="0px" y="0px" viewBox="27 117.697 272.999 70.035" fill="#290338" width="70" height="20">
<path d="M62.129,117.697c19.019,0,34.437,15.418,34.437,34.437s-15.418,34.437-34.437,34.437
	c-9.586,0-16.591-4.259-16.591-4.259L27,187.732l5.69-17.729c0,0-4.987-8.436-4.987-17.87
	C27.704,133.114,43.11,117.697,62.129,117.697z M91.051,152.134c0-15.981-12.942-28.922-28.922-28.922
	c-15.969,0-28.922,12.942-28.922,28.922c0,9.351,5.644,17.154,5.644,17.154l-3.684,10.278l11.029-3.297
	c0,0,7.087,4.787,15.934,4.787C78.11,181.056,91.051,168.103,91.051,152.134z"/>
<path d="M49.16,137.697c0,0,0.931-0.59,1.415-0.59c0.485,0,2.713,0,2.713,0s0.727,0.127,1.061,0.884
	s2.621,6.132,2.791,6.546c0.17,0.415,0.614,1.44-0.098,2.359c-0.712,0.919-2.202,2.634-2.202,2.634s-0.59,0.531-0.078,1.376
	c0.511,0.845,2.308,3.634,4.659,5.74c2.351,2.106,5.229,3.656,6.664,4.128c1.435,0.472,1.75-0.157,2.3-0.865
	c0.551-0.707,2.261-2.87,2.261-2.87s0.59-0.865,1.75-0.334c1.16,0.53,6.801,3.263,6.801,3.263s0.688,0.118,0.727,0.885
	s0.512,3.061-1.533,5.268c-2.045,2.207-6.393,3.229-8.452,2.653c-2.059-0.576-8.867-2.356-13.306-6.497s-8.035-8.498-9.506-11.712
	c-1.471-3.214-1.389-5.121-1.308-6.02C45.9,143.647,46.373,139.483,49.16,137.697z"/>
<polygon points="126.661,153.592 125.926,157.243 125.193,153.401 121.524,135.725 114.441,135.725 110.954,153.509 
	110.278,157.166 109.598,153.4 105.523,135.725 98.299,135.725 107.089,166.724 113.349,166.724 117.078,148.668 117.953,143.873 
	118.829,148.673 122.556,166.724 129.002,166.724 137.722,135.725 130.776,135.725 "/>
<path d="M159.073,146.125c-0.75-1.023-1.72-1.793-2.885-2.29c-1.158-0.493-2.461-0.743-3.873-0.743
	c-1.264,0-2.486,0.268-3.631,0.797c-0.989,0.457-1.885,1.221-2.67,2.276v-10.335h-6.328v30.895h6.328V154.26
	c0-1.883,0.391-3.347,1.162-4.35c0.758-0.987,1.892-1.487,3.368-1.487c1.425,0,2.361,0.479,2.867,1.472
	c0.393,0.714,0.592,1.673,0.592,2.849v13.98h6.452v-13.499c0-2.021-0.07-3.502-0.209-4.402
	C160.104,147.901,159.709,146.993,159.073,146.125z"/>
<path d="M183.862,164.841c-0.117-0.168-0.267-0.558-0.315-1.464c-0.028-1.003-0.041-1.881-0.041-2.609v-10.374
	c0-2.796-1.013-4.729-3.01-5.746c-1.952-0.992-4.213-1.495-6.721-1.495c-3.869,0-6.645,1.032-8.249,3.068
	c-1.008,1.3-1.583,2.979-1.71,4.99l-0.014,0.22h6.103l0.028-0.174c0.134-0.831,0.402-1.496,0.794-1.973
	c0.545-0.64,1.504-0.965,2.85-0.965c1.221,0,2.154,0.17,2.772,0.504c0.585,0.316,0.87,0.885,0.87,1.737
	c0,0.675-0.376,1.163-1.151,1.491c-0.453,0.199-1.228,0.368-2.304,0.503l-2.028,0.249c-2.316,0.293-4.1,0.79-5.304,1.479
	c-2.219,1.278-3.344,3.37-3.344,6.218c0,2.197,0.702,3.921,2.085,5.126c1.375,1.197,3.138,1.804,5.239,1.804
	c1.643,0,3.139-0.379,4.445-1.128c0.95-0.551,1.813-1.213,2.569-1.971c0.035,0.339,0.078,0.653,0.126,0.934
	c0.071,0.414,0.201,0.861,0.385,1.327l0.052,0.131h6.781v-1.211l-0.12-0.056C184.299,165.293,184.033,165.086,183.862,164.841z
	 M177.197,155.882v1.833c-0.04,1.898-0.581,3.217-1.606,3.921c-1.048,0.72-2.21,1.084-3.454,1.084c-0.763,0-1.418-0.212-1.946-0.63
	c-0.514-0.406-0.775-1.088-0.775-2.027c0-1.065,0.423-1.827,1.293-2.331c0.527-0.304,1.418-0.568,2.652-0.785l1.346-0.249
	c0.692-0.128,1.223-0.264,1.623-0.415C176.621,156.175,176.911,156.04,177.197,155.882z"/>
<path d="M194.376,137.593h-6.266v6.308h-3.153v4.627h3.153v13.715c0,1.461,0.355,2.564,1.054,3.277
	c0.974,1.014,2.722,1.528,5.196,1.528c0.223,0,0.451-0.004,0.688-0.012l3.001-0.111v-4.842l-0.223,0.016
	c-0.191,0.014-0.385,0.024-0.583,0.03c-0.198,0.007-0.386,0.011-0.564,0.011c-1.552,0-1.925-0.199-2.013-0.284
	c-0.108-0.105-0.29-0.45-0.29-1.584v-11.744h3.672V143.9h-3.672L194.376,137.593L194.376,137.593z"/>
<path d="M212.94,152.703c-3.5-0.767-5.558-1.311-6.122-1.62c-0.513-0.268-0.763-0.69-0.763-1.289
	c0-0.474,0.241-0.88,0.737-1.243c0.509-0.373,1.395-0.562,2.634-0.562c1.494,0,2.56,0.379,3.166,1.124
	c0.321,0.41,0.523,0.982,0.601,1.7l0.02,0.185h6.327l-0.021-0.227c-0.268-2.82-1.332-4.838-3.163-5.997
	c-1.806-1.143-4.17-1.723-7.024-1.723c-3.02,0-5.4,0.776-7.075,2.305c-1.68,1.535-2.531,3.398-2.531,5.537
	c0,1.824,0.554,3.244,1.645,4.22c1.072,0.974,2.93,1.793,5.523,2.435c3.53,0.835,5.591,1.426,6.124,1.758
	c0.494,0.308,0.734,0.746,0.734,1.339c0,0.612-0.301,1.061-0.918,1.371c-0.656,0.329-1.561,0.496-2.69,0.496
	c-1.918,0-3.242-0.376-3.935-1.117c-0.384-0.409-0.639-1.122-0.758-2.124l-0.021-0.183h-6.388v0.207c0,2.376,0.88,4.358,2.617,5.893
	c1.729,1.528,4.43,2.303,8.027,2.303c3.527,0,6.178-0.732,7.878-2.176c1.712-1.452,2.579-3.352,2.579-5.646
	c0-1.751-0.608-3.232-1.807-4.404C217.139,154.124,215.324,153.262,212.94,152.703z"/>
<path d="M239.917,135.725h-7.524l-11.065,30.999h7.129l2.073-6.287h10.962l2.018,6.287h7.375l-10.918-30.86
	L239.917,135.725z M239.666,154.752h-7.262l3.68-11.156L239.666,154.752z"/>
<path d="M265.291,143.195c-1.861,0-3.492,0.524-4.847,1.559c-0.596,0.467-1.169,1.078-1.712,1.82v-2.882h-6.079
	v31.932h6.266v-11.329c0.518,0.708,1.051,1.272,1.59,1.681c1.229,0.923,2.788,1.391,4.636,1.391c2.89,0,5.286-1.078,7.122-3.205
	c1.827-2.117,2.754-5.228,2.754-9.244c0-3.814-0.95-6.751-2.823-8.733C270.32,144.201,267.996,143.195,265.291,143.195z
	 M268.505,155.208c0,2.063-0.429,3.734-1.274,4.967c-0.841,1.224-2.029,1.819-3.635,1.819c-1.096,0-2.056-0.3-2.852-0.892
	c-1.349-1.019-2.033-2.827-2.033-5.375c0-1.627,0.207-2.984,0.614-4.032c0.783-1.964,2.181-2.919,4.273-2.919
	c1.74,0,2.96,0.625,3.731,1.912C268.11,151.99,268.505,153.512,268.505,155.208z"/>
<path d="M297.176,146.185c-1.877-1.984-4.2-2.99-6.906-2.99c-1.861,0-3.492,0.524-4.847,1.559
	c-0.596,0.467-1.169,1.078-1.712,1.82v-2.882h-6.079v31.932h6.266v-11.329c0.518,0.708,1.051,1.272,1.589,1.681
	c1.229,0.923,2.788,1.391,4.636,1.391c2.89,0,5.286-1.078,7.122-3.205c1.827-2.117,2.754-5.228,2.754-9.244
	C300,151.104,299.05,148.166,297.176,146.185z M293.485,155.208c0,2.063-0.429,3.734-1.274,4.967
	c-0.841,1.224-2.029,1.819-3.634,1.819c-1.096,0-2.056-0.3-2.852-0.892c-1.349-1.019-2.033-2.827-2.033-5.375
	c0-1.627,0.207-2.984,0.614-4.032c0.783-1.964,2.181-2.919,4.273-2.919c1.74,0,2.96,0.625,3.731,1.912
	C293.089,151.99,293.485,153.512,293.485,155.208z"/>
</svg>
